<?xml version="1.0" encoding="UTF-8" standalone="no"?>
<!DOCTYPE svg PUBLIC "-//W3C//DTD SVG 1.1//EN" "http://www.w3.org/Graphics/SVG/1.1/DTD/svg11.dtd">
<svg width="100%" height="100%" viewBox="0 0 512 512" version="1.1" xmlns="http://www.w3.org/2000/svg" xmlns:xlink="http://www.w3.org/1999/xlink" xml:space="preserve" xmlns:serif="http://www.serif.com/" style="fill-rule:evenodd;clip-rule:evenodd;stroke-linejoin:round;stroke-miterlimit:2;">
    <rect x="-2.842" y="-4.471" width="518.855" height="526.141" style="fill:rgb(0,98,173);"/>
    <g transform="matrix(0.401058,-0.0118624,0.0118624,0.401058,379.784,138.938)">
        <g transform="matrix(1,0,0,1,-256,-256.003)">
            <clipPath id="_clip1">
                <rect x="0" y="0" width="512" height="512.006"/>
            </clipPath>
            <g clip-path="url(#_clip1)">
                <path d="M11.671,160.968L498.394,0.692C506.897,-2.346 514.345,5.102 511.309,13.607L351.027,500.328C345.763,516.193 323.663,515.716 318.41,499.971L246.735,265.268L12.032,193.593C-3.857,188.318 -4.041,166.22 11.671,160.968ZM25.623,177.156L251.798,246.22L465.84,32.177L25.623,177.156Z" style="fill:white;fill-rule:nonzero;"/>
            </g>
        </g>
    </g>
    <g transform="matrix(0.987697,-0.0292139,0.0292139,0.987697,-3.98463,5.06263)">
        <path d="M26.47,260.745L66.699,278.624L290.195,158.997L265.763,150.599L26.47,260.745Z" style="fill:white;"/>
    </g>
    <g transform="matrix(0.987697,-0.0292139,0.0292139,0.987697,-3.98463,5.06263)">
        <path d="M27.55,352.504L79.468,374.646L339.822,173.595L316.917,166.723L27.55,352.504Z" style="fill:white;"/>
    </g>
    <g transform="matrix(0.987697,-0.0292139,0.0292139,0.987697,-3.98463,5.06263)">
        <path d="M58.853,465.04L124.188,486.404L363.491,211.307L355.093,190.693L58.853,465.04Z" style="fill:white;"/>
    </g>
    <g transform="matrix(0.987697,-0.0292139,0.0292139,0.987697,-3.98463,5.06263)">
        <path d="M225.289,463.49L284.087,472.176L386.396,260.685L374.944,236.253L225.289,463.49Z" style="fill:white;"/>
    </g>
</svg>
