<?xml version="1.0" encoding="UTF-8" standalone="no"?>
<!DOCTYPE svg PUBLIC "-//W3C//DTD SVG 1.1//EN" "http://www.w3.org/Graphics/SVG/1.1/DTD/svg11.dtd">
<svg width="100%" height="100%" viewBox="0 0 2048 2048" version="1.1" xmlns="http://www.w3.org/2000/svg" xmlns:xlink="http://www.w3.org/1999/xlink" xml:space="preserve" xmlns:serif="http://www.serif.com/" style="fill-rule:evenodd;clip-rule:evenodd;stroke-linejoin:round;stroke-miterlimit:2;">
    <g transform="matrix(1.002,0,0,1.0004,-0.0406819,-0.113865)">
        <rect x="-0.015" y="-0.001" width="2043.97" height="2047.29" style="fill:rgb(32,29,30);"/>
    </g>
    <path d="M1018.48,1891.05C995.101,1883.86 971.718,1876.7 948.357,1869.47C912.423,1858.35 876.486,1847.24 840.591,1835.99C832.148,1833.35 832.982,1835.18 832.981,1825.43C832.96,1483.35 832.958,1141.26 832.958,799.176C832.958,646.379 832.998,493.581 832.859,340.784C832.854,334.48 834.489,330.128 839.438,325.834C898.08,274.955 956.496,223.815 1014.98,172.748C1016.36,171.543 1017.78,170.396 1019.87,169.267C1021.03,172.144 1021.95,174.977 1021.95,177.811C1022.01,746.116 1022.01,1314.42 1022,1882.73C1022,1884.23 1022.44,1885.93 1021.88,1887.17C1021.19,1888.67 1019.65,1889.78 1018.48,1891.05Z" style="fill:rgb(250,165,41);fill-rule:nonzero;"/>
    <path d="M1031.77,173.039C1031.92,171.94 1032.07,170.84 1032.35,168.815C1039.18,174.933 1045.48,180.557 1051.76,186.204C1102.56,231.882 1153.3,277.63 1204.26,323.143C1209.18,327.547 1211.02,332.03 1211.02,338.585C1210.88,828.906 1210.89,1319.23 1210.88,1809.55C1210.88,1817.88 1210.8,1826.22 1210.89,1834.55C1210.92,1837.46 1209.92,1839.06 1206.99,1839.97C1174.87,1849.92 1142.78,1859.94 1110.71,1870.04C1085.95,1877.84 1061.24,1885.77 1036.5,1893.64C1035.41,1893.98 1034.31,1894.3 1031.92,1895.01C1031.92,1889.95 1031.92,1885.43 1031.91,1879.98C1031.91,1877.89 1031.94,1876.73 1031.94,1875.56C1031.94,1321.54 1031.95,767.528 1031.95,213.512C1031.95,200.021 1031.83,186.53 1031.77,173.039Z" style="fill:rgb(250,165,42);fill-rule:nonzero;"/>
    <path d="M482.48,1155.59C476.154,1159.89 469.946,1159.87 463.908,1156.09C458.099,1152.45 455.923,1146.87 456.888,1140.18C457.8,1133.86 461.442,1129.56 467.478,1127.48C474.297,1125.12 481.841,1127.9 485.801,1134.05C490.117,1140.74 488.956,1148.92 482.48,1155.59Z" style="fill:rgb(242,164,56);fill-rule:nonzero;"/>
    <path d="M1345.68,1727.42C1355.43,1726.88 1362.2,1732.89 1362.14,1741.59C1362.09,1749.53 1355.51,1755.56 1347.42,1755.09C1341.19,1754.72 1335.73,1749.67 1334.89,1743.5C1333.88,1736.01 1337.63,1730.25 1345.68,1727.42Z" style="fill:rgb(242,164,56);fill-rule:nonzero;"/>
    <path d="M431.767,146.248C438.18,155.172 434.87,165.186 425.257,166.984C419.468,168.067 413.731,165.339 411.507,160.446C409.146,155.25 410.716,148.725 415.187,145.159C420.045,141.283 425.732,141.572 431.767,146.248Z" style="fill:rgb(242,164,56);fill-rule:nonzero;"/>
    <path d="M570.828,241.014C574.022,234.232 578.365,231.688 584.231,232.844C589.675,233.917 593.76,238.906 593.853,244.597C593.936,249.611 590.443,254.174 585.413,255.622C576.6,258.161 569.37,251.152 570.828,241.014Z" style="fill:rgb(242,164,56);fill-rule:nonzero;"/>
    <path d="M1370.27,1118.19C1376.35,1115.09 1381.23,1115.88 1384.22,1120.16C1386.93,1124.03 1386.37,1129.15 1382.89,1132.33C1378.99,1135.91 1373.16,1135.83 1369.44,1132.14C1365.78,1128.5 1365.98,1123.17 1370.27,1118.19Z" style="fill:rgb(237,201,146);fill-rule:nonzero;"/>
    <path d="M765.862,709.232C760.872,706.302 759.185,702.299 761.249,698.528C763.308,694.768 766.624,693.743 770.58,695.057C774.358,696.313 776.436,700.474 775.139,704.332C773.717,708.561 770.66,710.272 765.862,709.232Z" style="fill:rgb(237,201,146);fill-rule:nonzero;"/>
    <path d="M1558.49,626.567C1557.16,630.797 1554.35,633.18 1550.54,632.016C1548.13,631.275 1545.09,628.657 1544.66,626.43C1544.23,624.196 1546.03,620.538 1548.01,619.031C1552.46,615.643 1557.63,619.378 1558.49,626.567Z" style="fill:rgb(237,201,146);fill-rule:nonzero;"/>
    <path d="M1672.95,1183.28C1674.21,1178.56 1677.03,1176.31 1681.5,1177.25C1685.39,1178.07 1687.31,1180.92 1687.18,1184.92C1687.04,1188.88 1684.61,1190.92 1680.95,1191.52C1676.62,1192.22 1673.39,1188.99 1672.95,1183.28Z" style="fill:rgb(237,201,146);fill-rule:nonzero;"/>
    <path d="M417.664,1665.85C413.22,1667.83 410.028,1666.43 408.327,1662.62C406.73,1659.04 407.776,1655.73 411.449,1653.8C414.699,1652.09 417.736,1652.87 419.754,1655.79C422.29,1659.47 421.813,1662.96 417.664,1665.85Z" style="fill:rgb(237,201,146);fill-rule:nonzero;"/>
    <path d="M1609.34,945.414C1612.83,948.601 1613.5,952.373 1610.49,955.225C1608.8,956.832 1605.05,957.339 1602.57,956.791C1599.28,956.063 1598.46,952.765 1599.01,949.512C1599.79,944.968 1603.64,943.344 1609.34,945.414Z" style="fill:rgb(237,201,146);fill-rule:nonzero;"/>
    <path d="M781.979,1360.95C782.925,1365.08 781.71,1367.95 777.924,1369.08C774.585,1370.07 771.66,1369.04 769.956,1365.8C768.313,1362.67 769.297,1359.99 771.916,1357.92C775.105,1355.4 778.708,1356.43 781.979,1360.95Z" style="fill:rgb(237,201,146);fill-rule:nonzero;"/>
    <path d="M598.326,1588.89C600.787,1592.59 600.929,1596.29 597.223,1598.15C595.122,1599.2 591.367,1598.76 589.242,1597.51C586.43,1595.84 586.416,1592.43 588.192,1589.53C590.248,1586.17 593.718,1585.9 598.326,1588.89Z" style="fill:rgb(237,201,146);fill-rule:nonzero;"/>
    <path d="M1272.06,1367.94C1269.14,1367.09 1265.9,1366.71 1264.25,1364.9C1263.21,1363.76 1263.85,1359.93 1265.06,1358.26C1266.1,1356.82 1269.21,1355.83 1271.02,1356.27C1272.82,1356.7 1275.39,1359.13 1275.4,1360.7C1275.41,1363.06 1273.49,1365.44 1272.06,1367.94Z" style="fill:rgb(237,201,146);fill-rule:nonzero;"/>
    <path d="M794.996,929.871C794.273,933.606 792.233,935.95 788.828,935.213C786.774,934.769 784.256,932.923 783.447,931.057C782.022,927.771 783.625,924.912 787.194,923.689C791.012,922.381 793.724,924.449 794.996,929.871Z" style="fill:rgb(237,201,146);fill-rule:nonzero;"/>
    <path d="M512.774,438.341C515.91,440.598 516.919,443.47 514.972,446.293C513.841,447.932 511.142,449.739 509.5,449.454C507.518,449.11 505.073,446.956 504.307,445.005C502.562,440.559 506.603,437.359 512.774,438.341Z" style="fill:rgb(237,201,146);fill-rule:nonzero;"/>
    <path d="M1322.84,346.064C1325.27,349.132 1325.39,352.285 1322.68,354.318C1321.05,355.543 1317.7,356.083 1316.03,355.206C1314.35,354.321 1312.9,351.305 1312.9,349.221C1312.9,344.553 1317.56,343.069 1322.84,346.064Z" style="fill:rgb(237,201,146);fill-rule:nonzero;"/>
    <path d="M526.972,558.072C523.792,556.108 522.245,553.43 524.039,550.437C525.021,548.799 527.49,547.34 529.426,547.141C532.861,546.788 535.725,550.357 535.049,553.728C534.207,557.933 531.41,559.325 526.972,558.072Z" style="fill:rgb(237,201,146);fill-rule:nonzero;"/>
    <path d="M448.315,896.488C443.302,900.352 437.881,898.89 437.77,893.762C437.728,891.83 439.093,889.007 440.668,888.142C442.266,887.266 445.989,887.512 446.858,888.688C448.25,890.571 448.054,893.626 448.315,896.488Z" style="fill:rgb(237,201,146);fill-rule:nonzero;"/>
    <path d="M1502.45,1741.68C1502.48,1744.4 1502.93,1747.22 1501.83,1749.14C1501.15,1750.34 1497.83,1751.01 1496.21,1750.43C1494.55,1749.84 1492.66,1747.56 1492.46,1745.83C1492.26,1744.13 1493.69,1741.04 1495.05,1740.62C1497.15,1739.96 1499.79,1741.05 1502.45,1741.68Z" style="fill:rgb(237,201,146);fill-rule:nonzero;"/>
    <path d="M1066.27,122.915C1063.54,120.094 1063.15,117.054 1065.78,114.798C1067.21,113.565 1070.51,112.809 1071.89,113.636C1073.56,114.635 1074.93,117.546 1074.91,119.615C1074.88,123.404 1071.42,124.64 1066.27,122.915Z" style="fill:rgb(237,201,146);fill-rule:nonzero;"/>
    <path d="M1382.77,736.461C1384.87,739.802 1384.72,742.936 1381.45,744.343C1379.67,745.108 1376.18,744.519 1374.93,743.175C1373.7,741.837 1373.34,738.172 1374.32,736.622C1376.35,733.431 1379.63,733.896 1382.77,736.461Z" style="fill:rgb(237,201,146);fill-rule:nonzero;"/>
    <path d="M1586.32,483.395C1583.87,483.977 1581.42,484.937 1579.44,484.336C1578.27,483.978 1577.17,481.123 1577.28,479.473C1577.37,478.066 1579,476.13 1580.39,475.617C1581.77,475.106 1584.63,475.535 1585.19,476.508C1586.26,478.349 1586.15,480.875 1586.32,483.395Z" style="fill:rgb(237,201,146);fill-rule:nonzero;"/>
    <path d="M1550.16,1202.45C1546.46,1203.69 1543.44,1202.96 1542.92,1199.3C1542.66,1197.4 1544.11,1194.04 1545.61,1193.45C1547.27,1192.8 1550.5,1193.97 1551.93,1195.43C1554.19,1197.73 1552.89,1200.34 1550.16,1202.45Z" style="fill:rgb(237,201,146);fill-rule:nonzero;"/>
    <path d="M1516.12,1603.98C1511.46,1606.91 1507.14,1605.51 1507.2,1601.3C1507.22,1599.78 1508.3,1597.54 1509.54,1596.95C1510.99,1596.25 1514.06,1596.28 1514.76,1597.23C1515.97,1598.88 1515.89,1601.47 1516.12,1603.98Z" style="fill:rgb(237,201,146);fill-rule:nonzero;"/>
    <path d="M1411.4,1578.85C1410.05,1576.71 1408.4,1574.67 1408.38,1572.62C1408.37,1571.43 1410.9,1569.36 1412.41,1569.24C1413.96,1569.12 1416.22,1570.5 1417.18,1571.9C1419.5,1575.3 1416.86,1578.58 1411.4,1578.85Z" style="fill:rgb(237,201,146);fill-rule:nonzero;"/>
    <path d="M715.205,1074.27C718.597,1072.65 721.323,1073.47 722.355,1076.52C722.88,1078.08 722.097,1081.02 720.859,1081.96C719.604,1082.91 716.581,1082.91 715.179,1082.01C712.058,1080.01 712.507,1077.11 715.205,1074.27Z" style="fill:rgb(237,201,146);fill-rule:nonzero;"/>
    <path d="M903.239,175.262C905.64,175.699 908.27,175.833 909.656,177.214C910.384,177.939 909.486,181.429 908.281,182.584C907.385,183.443 904.315,183.22 903.096,182.304C900.648,180.465 900.607,177.812 903.239,175.262Z" style="fill:rgb(237,201,146);fill-rule:nonzero;"/>
    <path d="M586.166,1734.69C585.347,1736.73 584.78,1738.88 583.385,1740C582.596,1740.64 579.452,1740 579.118,1739.2C578.37,1737.42 577.816,1734.38 578.794,1733.27C581.167,1730.59 584.047,1731.18 586.166,1734.69Z" style="fill:rgb(237,201,146);fill-rule:nonzero;"/>
    <path d="M1664.51,1015.65C1661.05,1016.44 1658.6,1015.35 1658.24,1012.23C1658.06,1010.68 1659.27,1008.13 1660.57,1007.48C1661.89,1006.82 1664.68,1007.33 1665.8,1008.4C1668.28,1010.76 1667.7,1013.44 1664.51,1015.65Z" style="fill:rgb(237,201,146);fill-rule:nonzero;"/>
    <path d="M767.865,484.108C771.532,485.212 773.038,487.612 771.397,490.567C770.644,491.924 767.901,492.875 766.161,492.737C765.013,492.646 762.899,489.799 763.223,489.037C764.035,487.123 765.985,485.692 767.865,484.108Z" style="fill:rgb(237,201,146);fill-rule:nonzero;"/>
    <path d="M1456.88,1052.9C1458.82,1050.01 1461.35,1049.72 1463.36,1051.63C1464.48,1052.7 1465.16,1055.49 1464.53,1056.76C1463.93,1057.99 1461.29,1059.02 1459.73,1058.81C1456.81,1058.42 1455.85,1056.11 1456.88,1052.9Z" style="fill:rgb(237,201,146);fill-rule:nonzero;"/>
    <path d="M783.267,1586.09C780.624,1588.53 777.816,1588.82 776.271,1586.03C775.471,1584.58 776.114,1581.41 777.303,1580.12C778.079,1579.29 781.384,1579.89 782.833,1580.9C783.747,1581.53 783.328,1584.09 783.267,1586.09Z" style="fill:rgb(237,201,146);fill-rule:nonzero;"/>
    <path d="M1665.26,297.011C1667.69,297.384 1670.09,297.563 1671.8,298.744C1672.36,299.136 1671.7,302.8 1670.58,303.694C1669.49,304.566 1666.64,304.483 1665.37,303.626C1663.02,302.042 1662.87,299.506 1665.26,297.011Z" style="fill:rgb(237,201,146);fill-rule:nonzero;"/>
    <path d="M844.841,117.298C845.591,113.827 847.83,112.7 850.413,114C851.767,114.681 852.995,117.034 852.957,118.599C852.927,119.793 850.955,121.694 849.6,121.944C846.695,122.479 844.986,120.684 844.841,117.298Z" style="fill:rgb(237,201,146);fill-rule:nonzero;"/>
    <path d="M1289.88,832.733C1289.95,828.448 1292.27,826.735 1295.65,828.189C1296.99,828.765 1298.22,832.032 1297.83,833.667C1296.98,837.164 1293,836.777 1289.88,832.733Z" style="fill:rgb(237,201,146);fill-rule:nonzero;"/>
    <path d="M471.801,1700.05C474.748,1697.48 477.566,1697.68 478.869,1700.84C479.448,1702.24 477.96,1704.82 476.802,1706.43C476.396,1706.99 473.354,1706.71 472.934,1705.99C472.005,1704.39 471.974,1702.27 471.801,1700.05Z" style="fill:rgb(237,201,146);fill-rule:nonzero;"/>
    <path d="M636.556,690.253C635.635,694.856 633.089,696.749 630.519,694.843C629.297,693.937 628.397,691.916 628.336,690.362C628.295,689.311 630.176,687.166 630.845,687.298C632.807,687.684 634.593,688.964 636.556,690.253Z" style="fill:rgb(237,201,146);fill-rule:nonzero;"/>
    <path d="M1485.61,987.478C1486.01,989.731 1486.68,991.986 1486,993.702C1485.7,994.448 1482.08,994.836 1480.95,994.022C1479.81,993.195 1478.99,989.655 1479.61,989.126C1481.01,987.914 1483.37,987.813 1485.61,987.478Z" style="fill:rgb(237,201,146);fill-rule:nonzero;"/>
    <path d="M557.027,1472.16C558.554,1473.24 560.677,1474.32 560.644,1475.34C560.586,1477.11 559.592,1479.8 558.272,1480.33C557.016,1480.84 553.914,1479.55 553.263,1478.24C551.797,1475.28 553.116,1472.85 557.027,1472.16Z" style="fill:rgb(237,201,146);fill-rule:nonzero;"/>
    <path d="M1631.18,841.249C1627.8,842.619 1625.33,841.804 1624.89,838.544C1624.7,837.089 1626.24,834.228 1627.32,834.053C1628.94,833.79 1631.37,834.909 1632.47,836.25C1633.12,837.053 1631.89,839.399 1631.18,841.249Z" style="fill:rgb(237,201,146);fill-rule:nonzero;"/>
    <path d="M470.598,703.639C467.857,705.85 465.224,706.143 463.847,702.965C463.283,701.664 464.065,698.721 465.167,698.047C466.337,697.331 468.972,697.932 470.273,698.896C471.106,699.513 470.68,701.829 470.598,703.639Z" style="fill:rgb(237,201,146);fill-rule:nonzero;"/>
    <path d="M758.924,230.561C761.171,230.462 763.362,230.266 765.153,231.019C765.779,231.282 766.065,234.418 765.349,235.29C764.428,236.408 762.144,237.33 760.795,236.984C757.541,236.15 757.101,233.68 758.924,230.561Z" style="fill:rgb(237,201,146);fill-rule:nonzero;"/>
    <path d="M469.484,502.293C469.879,504.426 470.56,506.607 469.87,508.189C469.499,509.04 466.388,509.58 465.217,508.951C464.022,508.308 462.882,505.909 463.139,504.548C463.771,501.2 466.221,500.577 469.484,502.293Z" style="fill:rgb(237,201,146);fill-rule:nonzero;"/>
    <path d="M1406.2,126.312C1410.11,126.386 1412.1,128.312 1410.78,131.665C1410.3,132.905 1407.44,133.627 1405.61,133.74C1404.82,133.789 1403.07,131.585 1403.21,130.622C1403.44,129.124 1404.91,127.813 1406.2,126.312Z" style="fill:rgb(237,201,146);fill-rule:nonzero;"/>
    <path d="M385.43,931.497C385.996,935.383 384.326,937.583 380.923,936.708C379.537,936.352 377.855,933.356 377.981,931.688C378.247,928.172 381.905,927.98 385.43,931.497Z" style="fill:rgb(237,201,146);fill-rule:nonzero;"/>
    <path d="M1373.75,1348.57C1370.55,1350.34 1367.87,1349.86 1367.45,1346.49C1367.27,1345 1369.61,1343.2 1370.81,1341.55C1372.2,1343.06 1373.69,1344.5 1374.91,1346.14C1375.15,1346.46 1374.34,1347.56 1373.75,1348.57Z" style="fill:rgb(237,201,146);fill-rule:nonzero;"/>
    <path d="M583.505,1373.32C582.64,1371.23 581.832,1369.26 581.84,1367.3C581.842,1366.83 584.925,1365.63 585.978,1366.11C587.29,1366.71 587.968,1368.7 588.92,1370.09C587.233,1371.21 585.546,1372.33 583.505,1373.32Z" style="fill:rgb(237,201,146);fill-rule:nonzero;"/>
    <path d="M1210.89,239.371C1210.62,241.455 1210.56,243.593 1209.49,244.901C1209.02,245.466 1206.02,244.782 1205.01,243.8C1204.23,243.031 1204.41,239.714 1204.75,239.617C1206.63,239.086 1208.69,239.198 1210.89,239.371Z" style="fill:rgb(237,201,146);fill-rule:nonzero;"/>
    <path d="M679.773,386.159C678.375,387.752 677.101,389.558 675.457,390.006C674.632,390.231 672.49,388.149 672.148,386.803C671.888,385.782 673.801,383.088 674.28,383.196C676.2,383.632 677.939,384.87 679.773,386.159Z" style="fill:rgb(237,201,146);fill-rule:nonzero;"/>
    <path d="M604.177,816.986C606.749,814.707 609.081,815.051 610.652,817.512C611.286,818.505 611.221,820.654 610.534,821.579C609.858,822.49 607.116,823.208 606.801,822.809C605.546,821.222 604.885,819.165 604.177,816.986Z" style="fill:rgb(237,201,146);fill-rule:nonzero;"/>
    <path d="M741.266,921.038C741.019,918.941 741.062,917.044 741.106,915.147C742.764,915.188 744.793,914.671 745.961,915.449C746.861,916.049 747.355,919.24 746.851,919.592C745.407,920.6 743.364,920.751 741.266,921.038Z" style="fill:rgb(237,201,146);fill-rule:nonzero;"/>
    <path d="M782.354,1702.8C782.782,1704.84 783.239,1706.82 782.747,1708.52C782.59,1709.07 779.527,1709.5 778.505,1708.86C777.486,1708.22 776.574,1705.24 776.988,1704.89C778.324,1703.74 780.292,1703.32 782.354,1702.8Z" style="fill:rgb(237,201,146);fill-rule:nonzero;"/>
    <path d="M677.956,1334.01C677.332,1332.02 676.553,1330.05 676.943,1328.35C677.091,1327.71 680.177,1327.06 681.455,1327.57C682.428,1327.96 683.508,1330.95 683.055,1331.46C681.904,1332.75 679.918,1333.3 677.956,1334.01Z" style="fill:rgb(237,201,146);fill-rule:nonzero;"/>
    <path d="M1270.82,1155.29C1271.99,1157.11 1273.03,1158.79 1273.44,1160.61C1273.52,1160.96 1270.97,1162.59 1269.98,1162.33C1268.69,1161.99 1266.64,1159.84 1266.85,1159.37C1267.6,1157.77 1269.19,1156.56 1270.82,1155.29Z" style="fill:rgb(237,201,146);fill-rule:nonzero;"/>
    <path d="M447.226,1593.93C448.584,1592.52 449.856,1590.96 451.387,1590.64C452.108,1590.5 453.889,1592.63 454.128,1593.92C454.303,1594.87 452.382,1597.2 452.021,1597.08C450.311,1596.5 448.817,1595.28 447.226,1593.93Z" style="fill:rgb(237,201,146);fill-rule:nonzero;"/>
    <path d="M560.688,1023.78C558.696,1023.77 556.677,1023.93 555.35,1023.04C554.767,1022.65 555.128,1019.8 555.941,1018.73C556.501,1017.99 559.483,1017.88 559.791,1018.41C560.628,1019.86 560.618,1021.79 560.688,1023.78Z" style="fill:rgb(237,201,146);fill-rule:nonzero;"/>
    <path d="M1368.75,1401.9C1370.7,1402.47 1372.56,1402.92 1373.77,1404.06C1374.19,1404.45 1373.33,1407.29 1372.44,1407.71C1371.28,1408.26 1368.42,1407.88 1368.21,1407.26C1367.7,1405.72 1368.28,1403.81 1368.75,1401.9Z" style="fill:rgb(237,201,146);fill-rule:nonzero;"/>
    <path d="M1135.39,162.164C1134.1,163.552 1132.83,164.829 1131.3,165.469C1130.95,165.612 1129.21,163.607 1128.99,162.426C1128.82,161.543 1130.36,159.439 1130.64,159.524C1132.28,160.021 1133.78,161.003 1135.39,162.164Z" style="fill:rgb(237,201,146);fill-rule:nonzero;"/>
    <path d="M1338.76,849.033C1337.27,847.753 1335.92,846.551 1335.21,845.048C1335.01,844.639 1336.72,842.616 1337.59,842.59C1338.8,842.554 1341.15,843.821 1341.09,844.312C1340.91,845.926 1339.86,847.443 1338.76,849.033Z" style="fill:rgb(237,201,146);fill-rule:nonzero;"/>
    <path d="M1601.06,1107.39C1599.35,1107.8 1597.62,1108.29 1596.3,1107.77C1595.71,1107.54 1595.47,1105.05 1595.95,1103.96C1596.28,1103.21 1598.81,1102.49 1599.12,1102.84C1600.13,1103.98 1600.56,1105.62 1601.06,1107.39Z" style="fill:rgb(237,201,146);fill-rule:nonzero;"/>
    <path d="M1612.62,1435.67C1610.8,1438.31 1608.75,1438.46 1607.35,1436.09C1606.85,1435.23 1607.74,1432.41 1608.57,1432.12C1611.02,1431.25 1612.73,1432.48 1612.62,1435.67Z" style="fill:rgb(237,201,146);fill-rule:nonzero;"/>
    <path d="M1323.41,752.973C1322.38,751.487 1321.51,750.084 1321.21,748.569C1321.15,748.25 1323.29,746.956 1324.24,747.127C1325.22,747.305 1326.87,749.104 1326.69,749.501C1326.09,750.838 1324.8,751.868 1323.41,752.973Z" style="fill:rgb(237,201,146);fill-rule:nonzero;"/>
    <path d="M1646.61,282.804C1644.99,285.555 1642.97,285.934 1641.39,283.645C1640.82,282.819 1641.89,280.854 1642.22,279.409C1643.72,280.426 1645.22,281.442 1646.61,282.804Z" style="fill:rgb(237,201,146);fill-rule:nonzero;"/>
    <path d="M369.752,735.67C370.756,734.188 371.722,732.883 373.002,732.073C373.258,731.911 375.117,733.496 375.472,734.537C375.732,735.301 374.659,737.373 374.327,737.341C372.798,737.194 371.32,736.513 369.752,735.67Z" style="fill:rgb(237,201,146);fill-rule:nonzero;"/>
    <path d="M638.086,1229.66C635.199,1230.85 633.547,1229.91 633.584,1227.15C633.595,1226.39 635.286,1224.98 636.132,1225.03C638.958,1225.21 639.718,1226.9 638.086,1229.66Z" style="fill:rgb(237,201,146);fill-rule:nonzero;"/>
    <path d="M643.46,1390.68C643.131,1388.94 643.001,1387.36 643.289,1385.86C643.334,1385.62 645.634,1385.31 646.255,1385.82C647.084,1386.49 647.951,1388.63 647.645,1388.92C646.644,1389.87 645.12,1390.27 643.46,1390.68Z" style="fill:rgb(237,201,146);fill-rule:nonzero;"/>
    <path d="M1288.99,915.2C1289.08,913.397 1289.43,911.79 1289.78,910.182C1290.96,911.028 1292.15,911.874 1293.34,912.719C1291.98,913.611 1290.62,914.503 1288.99,915.2Z" style="fill:rgb(237,201,146);fill-rule:nonzero;"/>
    <path d="M427.769,963.25C427.367,964.977 426.718,966.453 426.07,967.928C425.167,966.965 423.493,965.988 423.51,965.04C423.555,962.505 425.121,961.607 427.769,963.25Z" style="fill:rgb(237,201,146);fill-rule:nonzero;"/>
    <path d="M455.126,1370.96C453.643,1371.8 452.166,1372.31 450.69,1372.83C450.71,1371.53 450.729,1370.23 450.748,1368.93C452.21,1369.5 453.671,1370.07 455.126,1370.96Z" style="fill:rgb(237,201,146);fill-rule:nonzero;"/>
    <path d="M637.456,1369.2C636.01,1370.15 634.527,1370.75 633.044,1371.35C632.998,1369.92 632.952,1368.49 632.906,1367.05C634.41,1367.65 635.915,1368.25 637.456,1369.2Z" style="fill:rgb(237,201,146);fill-rule:nonzero;"/>
    <path d="M1668.01,764.236C1667.19,762.693 1666.7,761.153 1666.2,759.613C1667.39,759.637 1668.58,759.661 1669.77,759.685C1669.29,761.204 1668.81,762.722 1668.01,764.236Z" style="fill:rgb(237,201,146);fill-rule:nonzero;"/>
    <path d="M1527.37,523.072C1529.05,523.5 1530.51,524.18 1531.96,524.86C1531.07,525.806 1530.18,526.753 1529.3,527.7C1528.58,526.241 1527.86,524.782 1527.37,523.072Z" style="fill:rgb(237,201,146);fill-rule:nonzero;"/>
</svg>
